<svg width="847" height="1095" xmlns="http://www.w3.org/2000/svg" xmlns:xlink="http://www.w3.org/1999/xlink" xml:space="preserve" overflow="hidden"><defs><linearGradient x1="637.5" y1="924" x2="637.5" y2="1023" gradientUnits="userSpaceOnUse" spreadMethod="reflect" id="fill0"><stop offset="0" stop-color="#CA9A96" stop-opacity="0.305882"/><stop offset="0.5" stop-color="#FAF3E7" stop-opacity="1"/><stop offset="1" stop-color="#FFFFFF" stop-opacity="1"/></linearGradient></defs><g transform="translate(-110 -715)"><g><text fill="#595959" fill-opacity="1" font-family="Helvetica,Helvetica_MSFontService,sans-serif" font-style="normal" font-variant="normal" font-weight="400" font-stretch="normal" font-size="32" text-anchor="start" direction="ltr" writing-mode="lr-tb" unicode-bidi="normal" text-decoration="none" transform="matrix(1 0 0 1 193.429 785)">MS1</text><text fill="#595959" fill-opacity="1" font-family="Helvetica,Helvetica_MSFontService,sans-serif" font-style="oblique" font-variant="normal" font-weight="400" font-stretch="normal" font-size="28" text-anchor="start" direction="ltr" writing-mode="lr-tb" unicode-bidi="normal" text-decoration="none" transform="matrix(1 0 0 1 878.035 940)">m/z</text><g><g><g><g><path d="M21.8616-13.0286 21.8616-13.0835 23.5705-13.0929 25.2794-13.104 26.9883-13.1168 28.6972-13.1316 30.406-13.1487 32.115-13.1684 33.8238-13.191 35.5327-13.2171 37.2416-13.247 38.9505-13.2811 40.6594-13.3202 42.3683-13.3648 44.0772-13.4155 45.7861-13.4732 47.495-13.5387 49.2038-13.6128 50.9128-13.6967 52.6216-13.7914 54.3305-13.898 56.0394-14.018 57.7483-14.1528 59.4572-14.3038 61.1661-14.4727 62.875-14.6614 64.5839-14.8719 66.2927-15.106 68.0017-15.3661 69.7108-15.6546 71.4193-15.9739 73.1284-16.3267 74.8375-16.7158 76.546-17.144 78.2551-17.6146 79.9642-18.1309 81.6726-18.6961 83.3818-19.3136 85.0909-19.9872 86.7993-20.7206 88.5084-21.5175 90.2176-22.3819 91.926-23.3177 93.6351-24.3288 95.3442-25.4192 97.0527-26.5929 98.7618-27.8538 100.471-29.2057 102.179-30.6524 103.888-32.1975 105.598-33.8443 107.306-35.5962 109.015-37.456 110.724-39.4264 112.433-41.5096 114.142-43.7076 115.85-46.0218 117.559-48.4534 119.269-51.0028 120.977-53.6698 122.686-56.4539 124.395-59.3539 126.104-62.3677 127.813-65.4927 129.522-68.7257 131.23-72.0623 132.939-75.4974 134.649-79.0263 136.357-82.6416 138.066-86.3364 139.775-90.1028 141.484-93.9313 143.193-97.8138 144.902-101.738 146.61-105.695 148.319-109.672 150.029-113.656 151.737-117.636 153.446-121.597 155.155-125.527 156.864-129.411 158.573-133.234 160.282-136.982 161.99-140.641 163.7-144.195 165.409-147.631 167.117-150.934 168.826-154.09 170.535-157.085 172.244-159.906 173.953-162.54 175.662-164.976 177.37-167.203 179.08-169.209 180.789-170.986 182.497-172.525 184.206-173.819 185.915-174.862 187.624-175.648 189.333-176.175 191.042-176.439 192.75-176.439 194.46-176.175 196.169-175.648 197.877-174.862 199.586-173.819 201.295-172.525 203.004-170.986 204.713-169.209 206.422-167.203 208.131-164.976 209.84-162.54 211.549-159.906 213.257-157.085 214.966-154.09 216.675-150.934 218.384-147.631 220.093-144.195 221.802-140.641 223.511-136.982 225.22-133.234 226.929-129.411 228.637-125.527 230.346-121.597 232.055-117.636 233.764-113.656 235.473-109.672 237.182-105.695 238.891-101.738 240.6-97.8138 242.309-93.9313 244.017-90.1028 245.726-86.3364 247.436-82.6416 249.144-79.0263 250.853-75.4974 252.562-72.0623 254.271-68.7257 255.98-65.4927 257.689-62.3677 259.397-59.3539 261.106-56.4539 262.816-53.6698 264.524-51.0028 266.233-48.4534 267.942-46.0218 269.651-43.7076 271.36-41.5096 273.069-39.4264 274.777-37.456 276.486-35.5962 278.195-33.8443 279.904-32.1975 281.613-30.6524 283.322-29.2057 285.031-27.8538 286.74-26.5929 288.448-25.4192 290.157-24.3288 291.867-23.3177 293.575-22.3819 295.284-21.5175 296.993-20.7206 298.702-19.9872 300.411-19.3136 302.12-18.6961 303.828-18.1309 305.537-17.6146 307.247-17.144 308.955-16.7158 310.664-16.3267 312.373-15.9739 314.082-15.6546 315.791-15.3661 317.5-15.106 319.208-14.8719 320.917-14.6614 322.627-14.4727 324.335-14.3038 326.044-14.1528 327.753-14.018 329.462-13.898 331.171-13.7914 332.88-13.6967 334.588-13.6128 336.298-13.5387 338.007-13.4732 339.715-13.4155 341.424-13.3648 343.133-13.3202 344.842-13.2811 346.551-13.247 348.26-13.2171 349.968-13.191 351.678-13.1684 353.387-13.1487 355.095-13.1316 356.804-13.1168 358.513-13.104 360.222-13.0929 361.931-13.0835 361.931-13.0286 360.222-13.0286 358.513-13.0286 356.804-13.0286 355.095-13.0286 353.387-13.0286 351.678-13.0286 349.968-13.0286 348.26-13.0286 346.551-13.0286 344.842-13.0286 343.133-13.0286 341.424-13.0286 339.715-13.0286 338.007-13.0286 336.298-13.0286 334.588-13.0286 332.88-13.0286 331.171-13.0286 329.462-13.0286 327.753-13.0286 326.044-13.0286 324.335-13.0286 322.627-13.0286 320.917-13.0286 319.208-13.0286 317.5-13.0286 315.791-13.0286 314.082-13.0286 312.373-13.0286 310.664-13.0286 308.955-13.0286 307.247-13.0286 305.537-13.0286 303.828-13.0286 302.12-13.0286 300.411-13.0286 298.702-13.0286 296.993-13.0286 295.284-13.0286 293.575-13.0286 291.867-13.0286 290.157-13.0286 288.448-13.0286 286.74-13.0286 285.031-13.0286 283.322-13.0286 281.613-13.0286 279.904-13.0286 278.195-13.0286 276.486-13.0286 274.777-13.0286 273.069-13.0286 271.36-13.0286 269.651-13.0286 267.942-13.0286 266.233-13.0286 264.524-13.0286 262.816-13.0286 261.106-13.0286 259.397-13.0286 257.689-13.0286 255.98-13.0286 254.271-13.0286 252.562-13.0286 250.853-13.0286 249.144-13.0286 247.436-13.0286 245.726-13.0286 244.017-13.0286 242.309-13.0286 240.6-13.0286 238.891-13.0286 237.182-13.0286 235.473-13.0286 233.764-13.0286 232.055-13.0286 230.346-13.0286 228.637-13.0286 226.929-13.0286 225.22-13.0286 223.511-13.0286 221.802-13.0286 220.093-13.0286 218.384-13.0286 216.675-13.0286 214.966-13.0286 213.257-13.0286 211.549-13.0286 209.84-13.0286 208.131-13.0286 206.422-13.0286 204.713-13.0286 203.004-13.0286 201.295-13.0286 199.586-13.0286 197.877-13.0286 196.169-13.0286 194.46-13.0286 192.75-13.0286 191.042-13.0286 189.333-13.0286 187.624-13.0286 185.915-13.0286 184.206-13.0286 182.497-13.0286 180.789-13.0286 179.08-13.0286 177.37-13.0286 175.662-13.0286 173.953-13.0286 172.244-13.0286 170.535-13.0286 168.826-13.0286 167.117-13.0286 165.409-13.0286 163.7-13.0286 161.99-13.0286 160.282-13.0286 158.573-13.0286 156.864-13.0286 155.155-13.0286 153.446-13.0286 151.737-13.0286 150.029-13.0286 148.319-13.0286 146.61-13.0286 144.902-13.0286 143.193-13.0286 141.484-13.0286 139.775-13.0286 138.066-13.0286 136.357-13.0286 134.649-13.0286 132.939-13.0286 131.23-13.0286 129.522-13.0286 127.813-13.0286 126.104-13.0286 124.395-13.0286 122.686-13.0286 120.977-13.0286 119.269-13.0286 117.559-13.0286 115.85-13.0286 114.142-13.0286 112.433-13.0286 110.724-13.0286 109.015-13.0286 107.306-13.0286 105.598-13.0286 103.888-13.0286 102.179-13.0286 100.471-13.0286 98.7618-13.0286 97.0527-13.0286 95.3442-13.0286 93.6351-13.0286 91.926-13.0286 90.2176-13.0286 88.5084-13.0286 86.7993-13.0286 85.0909-13.0286 83.3818-13.0286 81.6726-13.0286 79.9642-13.0286 78.2551-13.0286 76.546-13.0286 74.8375-13.0286 73.1284-13.0286 71.4193-13.0286 69.7108-13.0286 68.0017-13.0286 66.2927-13.0286 64.5839-13.0286 62.875-13.0286 61.1661-13.0286 59.4572-13.0286 57.7483-13.0286 56.0394-13.0286 54.3305-13.0286 52.6216-13.0286 50.9128-13.0286 49.2038-13.0286 47.495-13.0286 45.7861-13.0286 44.0772-13.0286 42.3683-13.0286 40.6594-13.0286 38.9505-13.0286 37.2416-13.0286 35.5327-13.0286 33.8238-13.0286 32.115-13.0286 30.406-13.0286 28.6972-13.0286 26.9883-13.0286 25.2794-13.0286 23.5705-13.0286 21.8616-13.0286Z" stroke="#E5C185" stroke-width="0.674741" stroke-linecap="butt" stroke-linejoin="round" stroke-miterlimit="4" stroke-opacity="0.2" fill="#E5C185" fill-rule="nonzero" fill-opacity="0.2" transform="matrix(1 0 0 1.17699 446.104 940)"/></g><g><path d="M21.8616 176.384 35.5327 176.25 44.0772 176.052 50.9128 175.771 56.0394 175.449 61.1661 174.995 66.2927 174.361 69.7108 173.813 73.1284 173.14 76.546 172.323 79.9642 171.336 83.3818 170.153 86.7993 168.747 90.2176 167.085 93.6351 165.139 97.0527 162.874 100.471 160.262 102.179 158.815 103.888 157.27 105.598 155.623 107.306 153.871 110.724 150.041 114.142 145.76 117.559 141.014 120.977 135.798 124.395 130.114 127.813 123.974 131.23 117.405 134.649 110.441 138.066 103.131 143.193 91.6534 150.029 75.8112 156.864 60.0567 160.282 52.4852 163.7 45.2718 167.117 38.533 168.826 35.3772 170.535 32.3822 172.244 29.5612 173.953 26.9267 175.662 24.4909 177.37 22.2646 179.08 20.2583 180.789 18.4815 182.497 16.9423 184.206 15.6483 185.915 14.6055 187.624 13.819 189.333 13.2925 191.042 13.0286 192.75 13.0286 194.46 13.2925 196.169 13.819 197.877 14.6055 199.586 15.6483 201.295 16.9423 203.004 18.4815 204.713 20.2583 206.422 22.2646 208.131 24.4909 209.84 26.9267 211.549 29.5612 213.257 32.3822 214.966 35.3772 218.384 41.8359 221.802 48.8264 225.22 56.2335 230.346 67.8701 242.309 95.5359 245.726 103.131 249.144 110.441 252.562 117.405 255.98 123.974 259.397 130.114 262.816 135.798 266.233 141.014 269.651 145.76 273.069 150.041 276.486 153.871 279.904 157.27 283.322 160.262 286.74 162.874 290.157 165.139 293.575 167.085 296.993 168.747 300.411 170.153 303.828 171.336 307.247 172.323 310.664 173.14 314.082 173.813 317.5 174.361 322.627 174.995 327.753 175.449 334.588 175.854 341.424 176.103 351.678 176.299 361.931 176.384" stroke="#E5C185" stroke-width="2.02422" stroke-linecap="butt" stroke-linejoin="round" stroke-miterlimit="4" stroke-dasharray="7.48962 3.23876" stroke-opacity="1" fill="none" fill-rule="nonzero" transform="matrix(1 0 0 1.17699 446.104 717)"/></g></g></g></g><path d="M486 1023 510.75 924 764.25 924 789 1023Z" fill="url(#fill0)" fill-rule="evenodd"/><path d="M319.5 925.5 868.302 925.5" stroke="#BFBFBF" stroke-width="4.58333" stroke-linecap="butt" stroke-linejoin="miter" stroke-miterlimit="8" stroke-opacity="1" fill="none" fill-rule="evenodd"/><path d="M800.5 897.5 800.5 925.253" stroke="#7F7F7F" stroke-width="4.58333" stroke-linecap="butt" stroke-linejoin="miter" stroke-miterlimit="8" stroke-opacity="1" fill="none" fill-rule="evenodd"/><path d="M644 764 637.5 777 631 764Z" stroke="#FF0000" stroke-width="2.29167" stroke-linecap="butt" stroke-linejoin="miter" stroke-miterlimit="8" stroke-opacity="0.701961" fill="#FDE0DD" fill-rule="evenodd" fill-opacity="1"/><path d="M638 789 638 924.145" stroke="#CA9A96" stroke-width="5.72917" stroke-linecap="butt" stroke-linejoin="miter" stroke-miterlimit="8" stroke-opacity="1" fill="none" fill-rule="evenodd"/><path d="M695.5 824.5 695.5 924.414" stroke="#D86ECC" stroke-width="4.58333" stroke-linecap="butt" stroke-linejoin="miter" stroke-miterlimit="8" stroke-opacity="1" fill="none" fill-rule="evenodd"/><text fill="#CA9A96" fill-opacity="1" font-family="Helvetica,Helvetica_MSFontService,sans-serif" font-style="normal" font-variant="normal" font-weight="400" font-stretch="normal" font-size="32" text-anchor="start" direction="ltr" writing-mode="lr-tb" unicode-bidi="normal" text-decoration="none" transform="matrix(1 0 0 1 453.438 798)">Isolation </text><text fill="#CA9A96" fill-opacity="1" font-family="Helvetica,Helvetica_MSFontService,sans-serif" font-style="normal" font-variant="normal" font-weight="400" font-stretch="normal" font-size="32" text-anchor="start" direction="ltr" writing-mode="lr-tb" unicode-bidi="normal" text-decoration="none" transform="matrix(1 0 0 1 460.038 836)">window</text><path d="M586.5 870.5 586.5 924.053" stroke="#0976A0" stroke-width="4.58333" stroke-linecap="butt" stroke-linejoin="miter" stroke-miterlimit="8" stroke-opacity="1" fill="none" fill-rule="evenodd"/><path d="M832.5 837.5 832.5 924.371" stroke="#7F7F7F" stroke-width="4.58333" stroke-linecap="butt" stroke-linejoin="miter" stroke-miterlimit="8" stroke-opacity="1" fill="none" fill-rule="evenodd"/><path d="M2.16424-0.753522 11.282 25.4341 6.95347 26.9411-2.16424 0.753522ZM16.2676 18.845 13.6388 39.1731-1.04629 24.8732Z" fill="#BFBFBF" fill-rule="nonzero" fill-opacity="1" transform="matrix(-1 0 0 1 579.139 965.5)"/><path d="M523 1027.5C523 1025.01 525.015 1023 527.5 1023 529.985 1023 532 1025.01 532 1027.5 532 1029.99 529.985 1032 527.5 1032 525.015 1032 523 1029.99 523 1027.5Z" fill="#0976A0" fill-rule="evenodd" fill-opacity="1"/><path d="M576 947.5C576 942.806 579.582 939 584 939 588.418 939 592 942.806 592 947.5 592 952.194 588.418 956 584 956 579.582 956 576 952.194 576 947.5Z" fill="#0B76A0" fill-rule="evenodd" fill-opacity="1"/><path d="M558 1034C558 1031.79 560.015 1030 562.5 1030 564.985 1030 567 1031.79 567 1034 567 1036.21 564.985 1038 562.5 1038 560.015 1038 558 1036.21 558 1034Z" fill="#0976A0" fill-rule="evenodd" fill-opacity="1"/><path d="M549 1015C549 1011.69 551.686 1009 555 1009 558.314 1009 561 1011.69 561 1015 561 1018.31 558.314 1021 555 1021 551.686 1021 549 1018.31 549 1015Z" fill="#0976A0" fill-rule="evenodd" fill-opacity="1"/><path d="M568 1018C568 1015.24 570.238 1013 573 1013 575.761 1013 578 1015.24 578 1018 578 1020.76 575.761 1023 573 1023 570.238 1023 568 1020.76 568 1018Z" fill="#0976A0" fill-rule="evenodd" fill-opacity="1"/><path d="M540 1033C540 1030.24 542.463 1028 545.5 1028 548.538 1028 551 1030.24 551 1033 551 1035.76 548.538 1038 545.5 1038 542.463 1038 540 1035.76 540 1033Z" fill="#0976A0" fill-rule="evenodd" fill-opacity="1"/><path d="M705.692 967.832 713.96 994.951 709.576 996.287 701.308 969.168ZM719.199 988.562 715.777 1008.77 701.663 993.908Z" fill="#BFBFBF" fill-rule="nonzero" fill-opacity="1"/><path d="M728 1035.5C728 1033.01 730.015 1031 732.5 1031 734.985 1031 737 1033.01 737 1035.5 737 1037.99 734.985 1040 732.5 1040 730.015 1040 728 1037.99 728 1035.5Z" fill="#D86ECC" fill-rule="evenodd" fill-opacity="1"/><path d="M688 947.5C688 942.806 691.805 939 696.5 939 701.194 939 705 942.806 705 947.5 705 952.194 701.194 956 696.5 956 691.805 956 688 952.194 688 947.5Z" fill="#D86ECC" fill-rule="evenodd" fill-opacity="1"/><path d="M706 1032.5C706 1029.46 708.686 1027 712 1027 715.314 1027 718 1029.46 718 1032.5 718 1035.54 715.314 1038 712 1038 708.686 1038 706 1035.54 706 1032.5Z" fill="#D86ECC" fill-rule="evenodd" fill-opacity="1"/><path d="M722 1011C722 1008.24 724.462 1006 727.5 1006 730.537 1006 733 1008.24 733 1011 733 1013.76 730.537 1016 727.5 1016 724.462 1016 722 1013.76 722 1011Z" fill="#D86ECC" fill-rule="evenodd" fill-opacity="1"/><path d="M637 1063C637 1060.79 639.015 1059 641.5 1059 643.985 1059 646 1060.79 646 1063 646 1065.21 643.985 1067 641.5 1067 639.015 1067 637 1065.21 637 1063Z" fill="#CA9A96" fill-rule="evenodd" fill-opacity="1"/><path d="M632 947.5C632 942.806 635.806 939 640.5 939 645.194 939 649 942.806 649 947.5 649 952.194 645.194 956 640.5 956 635.806 956 632 952.194 632 947.5Z" fill="#CA9A96" fill-rule="evenodd" fill-opacity="1"/><path d="M649 1036C649 1033.79 651.015 1032 653.5 1032 655.985 1032 658 1033.79 658 1036 658 1038.21 655.985 1040 653.5 1040 651.015 1040 649 1038.21 649 1036Z" fill="#CA9A96" fill-rule="evenodd" fill-opacity="1"/><path d="M633 1023C633 1019.69 635.686 1017 639 1017 642.314 1017 645 1019.69 645 1023 645 1026.31 642.314 1029 639 1029 635.686 1029 633 1026.31 633 1023Z" fill="#CA9A96" fill-rule="evenodd" fill-opacity="1"/><path d="M614 1023C614 1020.24 616.239 1018 619 1018 621.761 1018 624 1020.24 624 1023 624 1025.76 621.761 1028 619 1028 616.239 1028 614 1025.76 614 1023Z" fill="#CA9A96" fill-rule="evenodd" fill-opacity="1"/><path d="M624 1041C624 1038.24 626.238 1036 629 1036 631.761 1036 634 1038.24 634 1041 634 1043.76 631.761 1046 629 1046 626.238 1046 624 1043.76 624 1041Z" fill="#CA9A96" fill-rule="evenodd" fill-opacity="1"/><path d="M642.792 966.5 642.792 993.022 638.208 993.022 638.208 966.5ZM649.667 988.438 640.5 1006.77 631.333 988.438Z" fill="#BFBFBF" fill-rule="nonzero" fill-opacity="1"/><text fill="#595959" fill-opacity="1" font-family="Helvetica,Helvetica_MSFontService,sans-serif" font-style="normal" font-variant="normal" font-weight="400" font-stretch="normal" font-size="32" text-anchor="start" direction="ltr" writing-mode="lr-tb" unicode-bidi="normal" text-decoration="none" transform="matrix(1 0 0 1 173.47 1057)">MS/MS</text><text fill="#595959" fill-opacity="1" font-family="Helvetica,Helvetica_MSFontService,sans-serif" font-style="oblique" font-variant="normal" font-weight="400" font-stretch="normal" font-size="28" text-anchor="start" direction="ltr" writing-mode="lr-tb" unicode-bidi="normal" text-decoration="none" transform="matrix(1 0 0 1 878.035 1213)">m/z</text><path d="M809.5 1144.5 809.5 1199.91" stroke="#CA9A96" stroke-width="4.58333" stroke-linecap="butt" stroke-linejoin="miter" stroke-miterlimit="8" stroke-opacity="1" fill="none" fill-rule="evenodd"/><path d="M815 1113 808.5 1127 802 1113Z" stroke="#FF0000" stroke-width="2.29167" stroke-linecap="butt" stroke-linejoin="miter" stroke-miterlimit="8" stroke-opacity="0.701961" fill="#FDE0DD" fill-rule="evenodd" fill-opacity="1"/><path d="M821.5 1170.5 821.5 1199.25" stroke="#D86ECC" stroke-width="4.58333" stroke-linecap="butt" stroke-linejoin="miter" stroke-miterlimit="8" stroke-opacity="1" fill="none" fill-rule="evenodd"/><path d="M688.5 1088.5 688.5 1199.33" stroke="#CA9A96" stroke-width="4.58333" stroke-linecap="butt" stroke-linejoin="miter" stroke-miterlimit="8" stroke-opacity="1" fill="none" fill-rule="evenodd"/><path d="M614.5 1170.5 614.5 1199.25" stroke="#CA9A96" stroke-width="4.58333" stroke-linecap="butt" stroke-linejoin="miter" stroke-miterlimit="8" stroke-opacity="1" fill="none" fill-rule="evenodd"/><path d="M490.5 1115.5 490.5 1199.61" stroke="#CA9A96" stroke-width="4.58333" stroke-linecap="butt" stroke-linejoin="miter" stroke-miterlimit="8" stroke-opacity="1" fill="none" fill-rule="evenodd"/><path d="M590.5 1144.5 590.5 1199.91" stroke="#CA9A96" stroke-width="4.58333" stroke-linecap="butt" stroke-linejoin="miter" stroke-miterlimit="8" stroke-opacity="1" fill="none" fill-rule="evenodd"/><path d="M466.5 1168.5 466.5 1199.32" stroke="#CA9A96" stroke-width="4.58333" stroke-linecap="butt" stroke-linejoin="miter" stroke-miterlimit="8" stroke-opacity="1" fill="none" fill-rule="evenodd"/><path d="M447.5 1144.5 447.5 1199.45" stroke="#0976A0" stroke-width="4.58333" stroke-linecap="butt" stroke-linejoin="miter" stroke-miterlimit="8" stroke-opacity="1" fill="none" fill-rule="evenodd"/><path d="M523.5 1185.5 523.5 1199.52" stroke="#0976A0" stroke-width="4.58333" stroke-linecap="butt" stroke-linejoin="miter" stroke-miterlimit="8" stroke-opacity="1" fill="none" fill-rule="evenodd"/><path d="M677.5 1167.5 677.5 1199.42" stroke="#0976A0" stroke-width="4.58333" stroke-linecap="butt" stroke-linejoin="miter" stroke-miterlimit="8" stroke-opacity="1" fill="none" fill-rule="evenodd"/><path d="M433.5 1178.5 433.5 1199.07" stroke="#0976A0" stroke-width="4.58333" stroke-linecap="butt" stroke-linejoin="miter" stroke-miterlimit="8" stroke-opacity="1" fill="none" fill-rule="evenodd"/><path d="M649.5 1158.5 649.5 1199.65" stroke="#0976A0" stroke-width="4.58333" stroke-linecap="butt" stroke-linejoin="miter" stroke-miterlimit="8" stroke-opacity="1" fill="none" fill-rule="evenodd"/><path d="M642.5 1116.5 642.5 1199.47" stroke="#D86ECC" stroke-width="4.58333" stroke-linecap="butt" stroke-linejoin="miter" stroke-miterlimit="8" stroke-opacity="1" fill="none" fill-rule="evenodd"/><path d="M540.5 1176.5 540.5 1199.59" stroke="#D86ECC" stroke-width="4.58333" stroke-linecap="butt" stroke-linejoin="miter" stroke-miterlimit="8" stroke-opacity="1" fill="none" fill-rule="evenodd"/><path d="M766.5 1154.5 766.5 1199.23" stroke="#D86ECC" stroke-width="4.58333" stroke-linecap="butt" stroke-linejoin="miter" stroke-miterlimit="8" stroke-opacity="1" fill="none" fill-rule="evenodd"/><path d="M319.5 1199.5 868.302 1199.5" stroke="#BFBFBF" stroke-width="4.58333" stroke-linecap="butt" stroke-linejoin="miter" stroke-miterlimit="8" stroke-opacity="1" fill="none" fill-rule="evenodd"/><text fill="#595959" fill-opacity="1" font-family="Helvetica,Helvetica_MSFontService,sans-serif" font-style="normal" font-variant="normal" font-weight="700" font-stretch="normal" font-size="32" text-anchor="start" direction="ltr" writing-mode="lr-tb" unicode-bidi="normal" text-decoration="none" transform="matrix(1 0 0 1 144.802 1362)">Symmetric</text><text fill="#595959" fill-opacity="1" font-family="Helvetica,Helvetica_MSFontService,sans-serif" font-style="normal" font-variant="normal" font-weight="700" font-stretch="normal" font-size="32" text-anchor="start" direction="ltr" writing-mode="lr-tb" unicode-bidi="normal" text-decoration="none" transform="matrix(1 0 0 1 180.048 1400)">search</text><text fill="#595959" fill-opacity="1" font-family="Helvetica,Helvetica_MSFontService,sans-serif" font-style="normal" font-variant="normal" font-weight="700" font-stretch="normal" font-size="32" text-anchor="start" direction="ltr" writing-mode="lr-tb" unicode-bidi="normal" text-decoration="none" transform="matrix(1 0 0 1 160.271 1621)">Reverse </text><text fill="#595959" fill-opacity="1" font-family="Helvetica,Helvetica_MSFontService,sans-serif" font-style="normal" font-variant="normal" font-weight="700" font-stretch="normal" font-size="32" text-anchor="start" direction="ltr" writing-mode="lr-tb" unicode-bidi="normal" text-decoration="none" transform="matrix(1 0 0 1 175.465 1659)">search</text><path d="M548 1260.97 588.5 1260.97 588.5 1233 669.5 1233 669.5 1260.97 710 1260.97 629 1305Z" fill="#D9D9D9" fill-rule="evenodd" fill-opacity="0.611765"/><text fill="#595959" fill-opacity="1" font-family="Helvetica,Helvetica_MSFontService,sans-serif" font-style="oblique" font-variant="normal" font-weight="400" font-stretch="normal" font-size="28" text-anchor="start" direction="ltr" writing-mode="lr-tb" unicode-bidi="normal" text-decoration="none" transform="matrix(1 0 0 1 878.771 1457)">m/z</text><text fill="#595959" fill-opacity="1" font-family="Helvetica,Helvetica_MSFontService,sans-serif" font-style="normal" font-variant="normal" font-weight="400" font-stretch="normal" font-size="23" text-anchor="start" direction="ltr" writing-mode="lr-tb" unicode-bidi="normal" text-decoration="none" transform="matrix(1 0 0 1 341.249 1474)">Reference</text><path d="M809.5 1394.5 809.5 1464.89" stroke="#CA9A96" stroke-width="4.58333" stroke-linecap="butt" stroke-linejoin="miter" stroke-miterlimit="8" stroke-opacity="1" fill="none" fill-rule="evenodd"/><path d="M816 1376 809.5 1384 803 1376Z" stroke="#FF0000" stroke-width="2.29167" stroke-linecap="butt" stroke-linejoin="miter" stroke-miterlimit="8" stroke-opacity="0.701961" fill="#FDE0DD" fill-rule="evenodd" fill-opacity="1"/><path d="M821.5 1411.5 821.5 1429.54" stroke="#D86ECC" stroke-width="4.58333" stroke-linecap="butt" stroke-linejoin="miter" stroke-miterlimit="8" stroke-opacity="1" fill="none" fill-rule="evenodd"/><path d="M689.5 1360.5 689.5 1501.29" stroke="#CA9A96" stroke-width="4.58333" stroke-linecap="butt" stroke-linejoin="miter" stroke-miterlimit="8" stroke-opacity="1" fill="none" fill-rule="evenodd"/><path d="M614.5 1411.5 614.5 1448.77" stroke="#CA9A96" stroke-width="4.58333" stroke-linecap="butt" stroke-linejoin="miter" stroke-miterlimit="8" stroke-opacity="1" fill="none" fill-rule="evenodd"/><path d="M491.5 1376.5 491.5 1484.16" stroke="#CA9A96" stroke-width="4.58333" stroke-linecap="butt" stroke-linejoin="miter" stroke-miterlimit="8" stroke-opacity="1" fill="none" fill-rule="evenodd"/><path d="M590.5 1394.5 590.5 1464.89" stroke="#CA9A96" stroke-width="4.58333" stroke-linecap="butt" stroke-linejoin="miter" stroke-miterlimit="8" stroke-opacity="1" fill="none" fill-rule="evenodd"/><path d="M467.5 1410.5 467.5 1447.77" stroke="#CA9A96" stroke-width="4.58333" stroke-linecap="butt" stroke-linejoin="miter" stroke-miterlimit="8" stroke-opacity="1" fill="none" fill-rule="evenodd"/><path d="M448.5 1395.5 448.5 1429.97" stroke="#0976A0" stroke-width="4.58333" stroke-linecap="butt" stroke-linejoin="miter" stroke-miterlimit="8" stroke-opacity="1" fill="none" fill-rule="evenodd"/><path d="M524.5 1420.5 524.5 1429.29" stroke="#0976A0" stroke-width="4.58333" stroke-linecap="butt" stroke-linejoin="miter" stroke-miterlimit="8" stroke-opacity="1" fill="none" fill-rule="evenodd"/><path d="M677.5 1409.5 677.5 1429.53" stroke="#0976A0" stroke-width="4.58333" stroke-linecap="butt" stroke-linejoin="miter" stroke-miterlimit="8" stroke-opacity="1" fill="none" fill-rule="evenodd"/><path d="M434.5 1416.5 434.5 1428.92" stroke="#0976A0" stroke-width="4.58333" stroke-linecap="butt" stroke-linejoin="miter" stroke-miterlimit="8" stroke-opacity="1" fill="none" fill-rule="evenodd"/><path d="M650.5 1403.5 650.5 1429.32" stroke="#0976A0" stroke-width="4.58333" stroke-linecap="butt" stroke-linejoin="miter" stroke-miterlimit="8" stroke-opacity="1" fill="none" fill-rule="evenodd"/><path d="M643.5 1377.5 643.5 1429.56" stroke="#D86ECC" stroke-width="4.58333" stroke-linecap="butt" stroke-linejoin="miter" stroke-miterlimit="8" stroke-opacity="1" fill="none" fill-rule="evenodd"/><path d="M541.5 1415.5 541.5 1429.99" stroke="#D86ECC" stroke-width="4.58333" stroke-linecap="butt" stroke-linejoin="miter" stroke-miterlimit="8" stroke-opacity="1" fill="none" fill-rule="evenodd"/><path d="M767.5 1401.5 767.5 1429.56" stroke="#D86ECC" stroke-width="4.58333" stroke-linecap="butt" stroke-linejoin="miter" stroke-miterlimit="8" stroke-opacity="1" fill="none" fill-rule="evenodd"/><path d="M319.5 1429.5 868.302 1429.5" stroke="#BFBFBF" stroke-width="4.58333" stroke-linecap="butt" stroke-linejoin="miter" stroke-miterlimit="8" stroke-opacity="1" fill="none" fill-rule="evenodd"/><text fill="#595959" fill-opacity="1" font-family="Helvetica,Helvetica_MSFontService,sans-serif" font-style="normal" font-variant="normal" font-weight="400" font-stretch="normal" font-size="23" text-anchor="start" direction="ltr" writing-mode="lr-tb" unicode-bidi="normal" text-decoration="none" transform="matrix(1 0 0 1 341.249 1405)">Query</text><text fill="#595959" fill-opacity="1" font-family="Helvetica,Helvetica_MSFontService,sans-serif" font-style="oblique" font-variant="normal" font-weight="400" font-stretch="normal" font-size="28" text-anchor="start" direction="ltr" writing-mode="lr-tb" unicode-bidi="normal" text-decoration="none" transform="matrix(1 0 0 1 878.771 1716)">m/z</text><text fill="#595959" fill-opacity="1" font-family="Helvetica,Helvetica_MSFontService,sans-serif" font-style="normal" font-variant="normal" font-weight="400" font-stretch="normal" font-size="23" text-anchor="start" direction="ltr" writing-mode="lr-tb" unicode-bidi="normal" text-decoration="none" transform="matrix(1 0 0 1 341.249 1733)">Reference</text><path d="M809.5 1653.5 809.5 1723.89" stroke="#CA9A96" stroke-width="4.58333" stroke-linecap="butt" stroke-linejoin="miter" stroke-miterlimit="8" stroke-opacity="1" fill="none" fill-rule="evenodd"/><path d="M816 1634 809.5 1643 803 1634Z" stroke="#FF0000" stroke-width="2.29167" stroke-linecap="butt" stroke-linejoin="miter" stroke-miterlimit="8" stroke-opacity="0.701961" fill="#FDE0DD" fill-rule="evenodd" fill-opacity="1"/><path d="M821.5 1670.5 821.5 1688.54" stroke="#D9D9D9" stroke-width="4.58333" stroke-linecap="square" stroke-linejoin="miter" stroke-miterlimit="8" stroke-dasharray="13.75 4.58333" stroke-opacity="1" fill="none" fill-rule="evenodd"/><path d="M689.5 1619.5 689.5 1760.29" stroke="#CA9A96" stroke-width="4.58333" stroke-linecap="butt" stroke-linejoin="miter" stroke-miterlimit="8" stroke-opacity="1" fill="none" fill-rule="evenodd"/><path d="M614.5 1670.5 614.5 1707.77" stroke="#CA9A96" stroke-width="4.58333" stroke-linecap="butt" stroke-linejoin="miter" stroke-miterlimit="8" stroke-opacity="1" fill="none" fill-rule="evenodd"/><path d="M491.5 1635.5 491.5 1743.16" stroke="#CA9A96" stroke-width="4.58333" stroke-linecap="butt" stroke-linejoin="miter" stroke-miterlimit="8" stroke-opacity="1" fill="none" fill-rule="evenodd"/><path d="M590.5 1653.5 590.5 1723.89" stroke="#CA9A96" stroke-width="4.58333" stroke-linecap="butt" stroke-linejoin="miter" stroke-miterlimit="8" stroke-opacity="1" fill="none" fill-rule="evenodd"/><path d="M467.5 1669.5 467.5 1706.77" stroke="#CA9A96" stroke-width="4.58333" stroke-linecap="butt" stroke-linejoin="miter" stroke-miterlimit="8" stroke-opacity="1" fill="none" fill-rule="evenodd"/><path d="M448.5 1654.5 448.5 1688.97" stroke="#D9D9D9" stroke-width="4.58333" stroke-linecap="square" stroke-linejoin="miter" stroke-miterlimit="8" stroke-dasharray="13.75 4.58333" stroke-opacity="1" fill="none" fill-rule="evenodd"/><path d="M524.5 1679.5 524.5 1688.29" stroke="#D9D9D9" stroke-width="4.58333" stroke-linecap="square" stroke-linejoin="miter" stroke-miterlimit="8" stroke-dasharray="13.75 4.58333" stroke-opacity="1" fill="none" fill-rule="evenodd"/><path d="M677.5 1668.5 677.5 1688.53" stroke="#D9D9D9" stroke-width="4.58333" stroke-linecap="square" stroke-linejoin="miter" stroke-miterlimit="8" stroke-dasharray="13.75 4.58333" stroke-opacity="1" fill="none" fill-rule="evenodd"/><path d="M434.5 1675.5 434.5 1687.92" stroke="#D9D9D9" stroke-width="4.58333" stroke-linecap="square" stroke-linejoin="miter" stroke-miterlimit="8" stroke-dasharray="13.75 4.58333" stroke-opacity="1" fill="none" fill-rule="evenodd"/><path d="M650.5 1662.5 650.5 1688.32" stroke="#D9D9D9" stroke-width="4.58333" stroke-linecap="square" stroke-linejoin="miter" stroke-miterlimit="8" stroke-dasharray="13.75 4.58333" stroke-opacity="1" fill="none" fill-rule="evenodd"/><path d="M643.5 1636.5 643.5 1688.56" stroke="#D9D9D9" stroke-width="4.58333" stroke-linecap="square" stroke-linejoin="miter" stroke-miterlimit="8" stroke-dasharray="13.75 4.58333" stroke-opacity="1" fill="none" fill-rule="evenodd"/><path d="M541.5 1674.5 541.5 1688.99" stroke="#D9D9D9" stroke-width="4.58333" stroke-linecap="square" stroke-linejoin="miter" stroke-miterlimit="8" stroke-dasharray="13.75 4.58333" stroke-opacity="1" fill="none" fill-rule="evenodd"/><path d="M767.5 1660.5 767.5 1688.56" stroke="#D9D9D9" stroke-width="4.58333" stroke-linecap="square" stroke-linejoin="miter" stroke-miterlimit="8" stroke-dasharray="13.75 4.58333" stroke-opacity="1" fill="none" fill-rule="evenodd"/><path d="M319.5 1688.5 868.302 1688.5" stroke="#BFBFBF" stroke-width="4.58333" stroke-linecap="butt" stroke-linejoin="miter" stroke-miterlimit="8" stroke-opacity="1" fill="none" fill-rule="evenodd"/><text fill="#595959" fill-opacity="1" font-family="Helvetica,Helvetica_MSFontService,sans-serif" font-style="normal" font-variant="normal" font-weight="400" font-stretch="normal" font-size="23" text-anchor="start" direction="ltr" writing-mode="lr-tb" unicode-bidi="normal" text-decoration="none" transform="matrix(1 0 0 1 341.249 1664)">Query</text><text fill="#595959" fill-opacity="1" font-family="Helvetica,Helvetica_MSFontService,sans-serif" font-style="normal" font-variant="normal" font-weight="400" font-stretch="normal" font-size="28" text-anchor="start" direction="ltr" writing-mode="lr-tb" unicode-bidi="normal" text-decoration="none" transform="matrix(1 0 0 1 715.436 1782)">Similarity: 0.98</text><text fill="#595959" fill-opacity="1" font-family="Helvetica,Helvetica_MSFontService,sans-serif" font-style="normal" font-variant="normal" font-weight="400" font-stretch="normal" font-size="28" text-anchor="start" direction="ltr" writing-mode="lr-tb" unicode-bidi="normal" text-decoration="none" transform="matrix(1 0 0 1 715.436 1523)">Similarity: 0.60</text><path d="M15.6971 7.78707 19.5295 5.06053 23.6418 2.72029 27.9048 0.831144 32.2841-0.610175 36.7456-1.60738 41.2559-2.16447 45.7817-2.2855 50.2902-1.97451 54.7486-1.23539 59.124-0.0719343 63.3835 1.51218 67.4939 3.51326 71.4216 5.92741 75.1328 8.75041 78.5931 11.9775 81.7934 15.6317 86.2009 22.287 88.877 30.6805 84.5102 32.0728 81.9309 23.9828 82.2037 24.552 78.0572 18.2909 78.2439 18.5354 75.2215 15.0843 75.3825 15.2504 72.0909 12.1807 72.2664 12.3287 68.7373 9.64415 68.9247 9.77258 65.1897 7.47687 65.3866 7.58497 61.4773 5.68181 61.6816 5.76928 57.6297 4.26237 57.8396 4.32914 53.6767 3.22219 53.8908 3.26829 49.6486 2.56501 49.8657 2.59043 45.5757 2.29451 45.7947 2.29912 41.4887 2.41428 41.7083 2.39781 37.4179 2.92775 37.6368 2.88985 33.3936 3.83826 33.6101 3.77858 29.4457 5.14918 29.6578 5.06754 25.6039 6.86404 25.8088 6.76062 21.897 8.98672 22.0921 8.86229 18.3541 11.5217ZM94.6737 24.946 89.6222 44.8111 76.761 28.8509Z" fill="#D9D9D9" fill-rule="nonzero" fill-opacity="1" transform="matrix(-0.258819 0.965926 0.965926 0.258819 311.046 1633.41)"/></g></g></svg>