<svg width="596" height="1004" xmlns="http://www.w3.org/2000/svg" xmlns:xlink="http://www.w3.org/1999/xlink" xml:space="preserve" overflow="hidden"><defs><linearGradient x1="511.5" y1="935" x2="511.5" y2="1011" gradientUnits="userSpaceOnUse" spreadMethod="reflect" id="fill0"><stop offset="0" stop-color="#CA9A96" stop-opacity="0.2"/><stop offset="0.5" stop-color="#FAF3E7" stop-opacity="0.85098"/><stop offset="1" stop-color="#FFFFFF" stop-opacity="1"/></linearGradient></defs><g transform="translate(-151 -765)"><g><text fill="#595959" fill-opacity="1" font-family="Helvetica,Helvetica_MSFontService,sans-serif" font-style="normal" font-variant="normal" font-weight="400" font-stretch="normal" font-size="25" text-anchor="start" direction="ltr" writing-mode="lr-tb" unicode-bidi="normal" text-decoration="none" transform="matrix(1 0 0 1 224.49 841)">MS1 spectrum</text><text fill="#595959" fill-opacity="1" font-family="Helvetica,Helvetica_MSFontService,sans-serif" font-style="oblique" font-variant="normal" font-weight="400" font-stretch="normal" font-size="23" text-anchor="start" direction="ltr" writing-mode="lr-tb" unicode-bidi="normal" text-decoration="none" transform="matrix(1 0 0 1 679.999 946)">m/z</text><path d="M518 811 512 820 506 811Z" stroke="#FF0000" stroke-width="2.29167" stroke-linecap="butt" stroke-linejoin="miter" stroke-miterlimit="8" stroke-opacity="0.701961" fill="#FF0000" fill-rule="evenodd" fill-opacity="1"/><text fill="#CA9A96" fill-opacity="1" font-family="Helvetica,Helvetica_MSFontService,sans-serif" font-style="normal" font-variant="normal" font-weight="400" font-stretch="normal" font-size="23" text-anchor="start" direction="ltr" writing-mode="lr-tb" unicode-bidi="normal" text-decoration="none" transform="matrix(1 0 0 1 555.253 807)">Isolation </text><text fill="#CA9A96" fill-opacity="1" font-family="Helvetica,Helvetica_MSFontService,sans-serif" font-style="normal" font-variant="normal" font-weight="400" font-stretch="normal" font-size="23" text-anchor="start" direction="ltr" writing-mode="lr-tb" unicode-bidi="normal" text-decoration="none" transform="matrix(1 0 0 1 559.538 835)">window</text><g><g><g><g><path d="M15.9977-9.53397 15.9977-9.57412 17.2482-9.58103 18.4987-9.58913 19.7492-9.59851 20.9998-9.60932 22.2503-9.62181 23.5008-9.63623 24.7513-9.65282 26.0018-9.67188 27.2523-9.69375 28.5028-9.71874 29.7534-9.74732 31.0039-9.77996 32.2544-9.81709 33.5049-9.85931 34.7554-9.9072 36.0059-9.96147 37.2565-10.0228 38.507-10.0921 39.7575-10.1702 41.008-10.258 42.2585-10.3566 43.509-10.4671 44.7596-10.5907 46.0101-10.7288 47.2606-10.8828 48.5111-11.0541 49.7617-11.2445 51.0123-11.4556 52.2625-11.6892 53.5132-11.9474 54.7639-12.2321 56.0141-12.5455 57.2648-12.8899 58.5155-13.2677 59.7656-13.6812 61.0163-14.1331 62.267-14.6261 63.5172-15.1627 64.7679-15.7459 66.0186-16.3784 67.2688-17.0632 68.5194-17.8031 69.7701-18.601 71.0203-19.4599 72.271-20.3826 73.5217-21.3719 74.7719-22.4305 76.0225-23.5612 77.2732-24.7663 78.5234-26.0483 79.7741-27.4092 81.0243-28.8511 82.275-30.3755 83.5257-31.9839 84.7758-33.6774 86.0265-35.4568 87.2772-37.3223 88.5274-39.274 89.7781-41.3113 91.0288-43.4334 92.2789-45.6389 93.5296-47.9256 94.7803-50.2915 96.0305-52.7331 97.2812-55.2468 98.5319-57.8291 99.7821-60.4747 101.033-63.1785 102.283-65.9346 103.534-68.7362 104.784-71.5773 106.035-74.4489 107.285-77.3443 108.536-80.2545 109.787-83.1701 111.037-86.0823 112.287-88.9811 113.538-91.8568 114.788-94.6988 116.039-97.4965 117.29-100.239 118.54-102.917 119.791-105.518 121.041-108.032 122.291-110.449 123.542-112.758 124.793-114.95 126.043-117.015 127.294-118.942 128.544-120.725 129.794-122.354 131.045-123.822 132.296-125.123 133.546-126.249 134.797-127.195 136.047-127.959 137.298-128.534 138.548-128.92 139.799-129.113 141.049-129.113 142.3-128.92 143.551-128.534 144.801-127.959 146.051-127.195 147.302-126.249 148.552-125.123 149.803-123.822 151.054-122.354 152.304-120.725 153.555-118.942 154.805-117.015 156.055-114.95 157.306-112.758 158.557-110.449 159.807-108.032 161.058-105.518 162.308-102.917 163.558-100.239 164.809-97.4965 166.06-94.6988 167.31-91.8568 168.561-88.9811 169.811-86.0823 171.062-83.1701 172.312-80.2545 173.563-77.3443 174.813-74.4489 176.064-71.5773 177.314-68.7362 178.565-65.9346 179.815-63.1785 181.066-60.4747 182.316-57.8291 183.567-55.2468 184.818-52.7331 186.068-50.2915 187.318-47.9256 188.569-45.6389 189.819-43.4334 191.07-41.3113 192.321-39.274 193.571-37.3223 194.822-35.4568 196.072-33.6774 197.322-31.9839 198.573-30.3755 199.824-28.8511 201.074-27.4092 202.325-26.0483 203.575-24.7663 204.826-23.5612 206.076-22.4305 207.326-21.3719 208.577-20.3826 209.828-19.4599 211.078-18.601 212.329-17.8031 213.579-17.0632 214.83-16.3784 216.08-15.7459 217.331-15.1627 218.581-14.6261 219.832-14.1331 221.082-13.6812 222.333-13.2677 223.583-12.8899 224.834-12.5455 226.084-12.2321 227.335-11.9474 228.586-11.6892 229.836-11.4556 231.086-11.2445 232.337-11.0541 233.587-10.8828 234.838-10.7288 236.089-10.5907 237.339-10.4671 238.59-10.3566 239.84-10.258 241.09-10.1702 242.341-10.0921 243.592-10.0228 244.842-9.96147 246.093-9.9072 247.343-9.85931 248.594-9.81709 249.844-9.77996 251.095-9.74732 252.345-9.71874 253.596-9.69375 254.846-9.67188 256.097-9.65282 257.347-9.63623 258.598-9.62181 259.848-9.60932 261.099-9.59851 262.35-9.58913 263.6-9.58103 264.85-9.57412 264.85-9.53397 263.6-9.53397 262.35-9.53397 261.099-9.53397 259.848-9.53397 258.598-9.53397 257.347-9.53397 256.097-9.53397 254.846-9.53397 253.596-9.53397 252.345-9.53397 251.095-9.53397 249.844-9.53397 248.594-9.53397 247.343-9.53397 246.093-9.53397 244.842-9.53397 243.592-9.53397 242.341-9.53397 241.09-9.53397 239.84-9.53397 238.59-9.53397 237.339-9.53397 236.089-9.53397 234.838-9.53397 233.587-9.53397 232.337-9.53397 231.086-9.53397 229.836-9.53397 228.586-9.53397 227.335-9.53397 226.084-9.53397 224.834-9.53397 223.583-9.53397 222.333-9.53397 221.082-9.53397 219.832-9.53397 218.581-9.53397 217.331-9.53397 216.08-9.53397 214.83-9.53397 213.579-9.53397 212.329-9.53397 211.078-9.53397 209.828-9.53397 208.577-9.53397 207.326-9.53397 206.076-9.53397 204.826-9.53397 203.575-9.53397 202.325-9.53397 201.074-9.53397 199.824-9.53397 198.573-9.53397 197.322-9.53397 196.072-9.53397 194.822-9.53397 193.571-9.53397 192.321-9.53397 191.07-9.53397 189.819-9.53397 188.569-9.53397 187.318-9.53397 186.068-9.53397 184.818-9.53397 183.567-9.53397 182.316-9.53397 181.066-9.53397 179.815-9.53397 178.565-9.53397 177.314-9.53397 176.064-9.53397 174.813-9.53397 173.563-9.53397 172.312-9.53397 171.062-9.53397 169.811-9.53397 168.561-9.53397 167.31-9.53397 166.06-9.53397 164.809-9.53397 163.558-9.53397 162.308-9.53397 161.058-9.53397 159.807-9.53397 158.557-9.53397 157.306-9.53397 156.055-9.53397 154.805-9.53397 153.555-9.53397 152.304-9.53397 151.054-9.53397 149.803-9.53397 148.552-9.53397 147.302-9.53397 146.051-9.53397 144.801-9.53397 143.551-9.53397 142.3-9.53397 141.049-9.53397 139.799-9.53397 138.548-9.53397 137.298-9.53397 136.047-9.53397 134.797-9.53397 133.546-9.53397 132.296-9.53397 131.045-9.53397 129.794-9.53397 128.544-9.53397 127.294-9.53397 126.043-9.53397 124.793-9.53397 123.542-9.53397 122.291-9.53397 121.041-9.53397 119.791-9.53397 118.54-9.53397 117.29-9.53397 116.039-9.53397 114.788-9.53397 113.538-9.53397 112.287-9.53397 111.037-9.53397 109.787-9.53397 108.536-9.53397 107.285-9.53397 106.035-9.53397 104.784-9.53397 103.534-9.53397 102.283-9.53397 101.033-9.53397 99.7821-9.53397 98.5319-9.53397 97.2812-9.53397 96.0305-9.53397 94.7803-9.53397 93.5296-9.53397 92.2789-9.53397 91.0288-9.53397 89.7781-9.53397 88.5274-9.53397 87.2772-9.53397 86.0265-9.53397 84.7758-9.53397 83.5257-9.53397 82.275-9.53397 81.0243-9.53397 79.7741-9.53397 78.5234-9.53397 77.2732-9.53397 76.0225-9.53397 74.7719-9.53397 73.5217-9.53397 72.271-9.53397 71.0203-9.53397 69.7701-9.53397 68.5194-9.53397 67.2688-9.53397 66.0186-9.53397 64.7679-9.53397 63.5172-9.53397 62.267-9.53397 61.0163-9.53397 59.7656-9.53397 58.5155-9.53397 57.2648-9.53397 56.0141-9.53397 54.7639-9.53397 53.5132-9.53397 52.2625-9.53397 51.0123-9.53397 49.7617-9.53397 48.5111-9.53397 47.2606-9.53397 46.0101-9.53397 44.7596-9.53397 43.509-9.53397 42.2585-9.53397 41.008-9.53397 39.7575-9.53397 38.507-9.53397 37.2565-9.53397 36.0059-9.53397 34.7554-9.53397 33.5049-9.53397 32.2544-9.53397 31.0039-9.53397 29.7534-9.53397 28.5028-9.53397 27.2523-9.53397 26.0018-9.53397 24.7513-9.53397 23.5008-9.53397 22.2503-9.53397 20.9998-9.53397 19.7492-9.53397 18.4987-9.53397 17.2482-9.53397 15.9977-9.53397Z" stroke="#E5C185" stroke-width="0.493755" stroke-linecap="butt" stroke-linejoin="round" stroke-miterlimit="4" stroke-opacity="0.2" fill="#E5C185" fill-rule="nonzero" fill-opacity="0.2" transform="matrix(1 0 0 1.24057 371.076 948)"/></g><g><path d="M15.9977 129.073 26.0018 128.975 32.2544 128.83 37.2565 128.624 41.008 128.389 44.7596 128.056 48.5111 127.592 51.0123 127.191 53.5132 126.699 56.0141 126.101 58.5155 125.379 61.0163 124.513 63.5172 123.484 66.0186 122.268 68.5194 120.844 71.0203 119.187 73.5217 117.275 74.7719 116.216 76.0225 115.086 77.2732 113.88 78.5234 112.598 81.0243 109.795 83.5257 106.663 86.0265 103.19 88.5274 99.3727 91.0288 95.2133 93.5296 90.7206 96.0305 85.9135 98.5319 80.8174 101.033 75.4681 104.784 67.0693 109.787 55.4764 114.788 43.9477 117.29 38.4071 119.791 33.1286 122.291 28.1973 123.542 25.888 124.793 23.6964 126.043 21.632 127.294 19.7042 128.544 17.9217 129.794 16.2926 131.045 14.8245 132.296 13.5242 133.546 12.3979 134.797 11.451 136.047 10.6879 137.298 10.1123 138.548 9.72708 139.799 9.53397 141.049 9.53397 142.3 9.72708 143.551 10.1123 144.801 10.6879 146.051 11.451 147.302 12.3979 148.552 13.5242 149.803 14.8245 151.054 16.2926 152.304 17.9217 153.555 19.7042 154.805 21.632 156.055 23.6964 157.306 25.888 159.807 30.6143 162.308 35.7297 164.809 41.15 168.561 49.6654 177.314 69.9103 179.815 75.4681 182.316 80.8174 184.818 85.9135 187.318 90.7206 189.819 95.2133 192.321 99.3727 194.822 103.19 197.322 106.663 199.824 109.795 202.325 112.598 204.826 115.086 207.326 117.275 209.828 119.187 212.329 120.844 214.83 122.268 217.331 123.484 219.832 124.513 222.333 125.379 224.834 126.101 227.335 126.699 229.836 127.191 232.337 127.592 236.089 128.056 239.84 128.389 244.842 128.685 249.844 128.867 257.347 129.01 264.85 129.073" stroke="#E5C185" stroke-width="1.48127" stroke-linecap="butt" stroke-linejoin="round" stroke-miterlimit="4" stroke-dasharray="5.48069 2.37003" stroke-opacity="1" fill="none" fill-rule="nonzero" transform="matrix(1 0 0 1.24057 371.076 776)"/></g></g></g></g><path d="M401 1011 420 935 603 935 622 1011Z" fill="url(#fill0)" fill-rule="evenodd"/><path d="M290 938 671.545 938" stroke="#BFBFBF" stroke-width="2.29167" stroke-linecap="butt" stroke-linejoin="miter" stroke-miterlimit="8" stroke-opacity="1" fill="none" fill-rule="evenodd"/><path d="M512.5 834.5 512.5 938.581" stroke="#CA9A96" stroke-width="3.20833" stroke-linecap="butt" stroke-linejoin="miter" stroke-miterlimit="8" stroke-opacity="1" fill="none" fill-rule="evenodd"/><path d="M551.5 860.5 551.5 937.448" stroke="#D86ECC" stroke-width="3.20833" stroke-linecap="butt" stroke-linejoin="miter" stroke-miterlimit="8" stroke-opacity="1" fill="none" fill-rule="evenodd"/><path d="M475.5 896.5 475.5 937.743" stroke="#0976A0" stroke-width="3.20833" stroke-linecap="butt" stroke-linejoin="miter" stroke-miterlimit="8" stroke-opacity="1" fill="none" fill-rule="evenodd"/><path d="M2.17602-0.71881 9.71667 22.1086 5.36464 23.5462-2.17602 0.71881ZM14.8071 15.6002 11.8535 35.8835-2.60103 21.3506Z" fill="#BFBFBF" fill-rule="nonzero" fill-opacity="1" transform="matrix(-1 0 0 1 470.354 975.5)"/><path d="M422 1032C422 1029.79 423.567 1028 425.5 1028 427.433 1028 429 1029.79 429 1032 429 1034.21 427.433 1036 425.5 1036 423.567 1036 422 1034.21 422 1032Z" fill="#0976A0" fill-rule="evenodd" fill-opacity="1"/><path d="M467 958.5C467 954.358 470.358 951 474.5 951 478.642 951 482 954.358 482 958.5 482 962.642 478.642 966 474.5 966 470.358 966 467 962.642 467 958.5Z" fill="#0B76A0" fill-rule="evenodd" fill-opacity="1"/><path d="M452 1038C452 1035.79 453.567 1034 455.5 1034 457.433 1034 459 1035.79 459 1038 459 1040.21 457.433 1042 455.5 1042 453.567 1042 452 1040.21 452 1038Z" fill="#0976A0" fill-rule="evenodd" fill-opacity="1"/><path d="M444 1020.5C444 1017.46 446.239 1015 449 1015 451.762 1015 454 1017.46 454 1020.5 454 1023.54 451.762 1026 449 1026 446.239 1026 444 1023.54 444 1020.5Z" fill="#0976A0" fill-rule="evenodd" fill-opacity="1"/><path d="M436 1037C436 1034.24 438.015 1032 440.5 1032 442.985 1032 445 1034.24 445 1037 445 1039.76 442.985 1042 440.5 1042 438.015 1042 436 1039.76 436 1037Z" fill="#0976A0" fill-rule="evenodd" fill-opacity="1"/><path d="M562.702 976.863 569.551 1000.54 565.148 1001.82 558.299 978.137ZM574.882 994.231 571.17 1014.39 557.271 999.325Z" fill="#BFBFBF" fill-rule="nonzero" fill-opacity="1"/><path d="M582 1039C582 1036.79 583.791 1035 586 1035 588.209 1035 590 1036.79 590 1039 590 1041.21 588.209 1043 586 1043 583.791 1043 582 1041.21 582 1039Z" fill="#D86ECC" fill-rule="evenodd" fill-opacity="1"/><path d="M547 958.5C547 954.358 550.358 951 554.5 951 558.642 951 562 954.358 562 958.5 562 962.642 558.642 966 554.5 966 550.358 966 547 962.642 547 958.5Z" fill="#D86ECC" fill-rule="evenodd" fill-opacity="1"/><path d="M563 1036.5C563 1033.46 565.239 1031 568 1031 570.761 1031 573 1033.46 573 1036.5 573 1039.54 570.761 1042 568 1042 565.239 1042 563 1039.54 563 1036.5Z" fill="#D86ECC" fill-rule="evenodd" fill-opacity="1"/><path d="M577 1016.5C577 1014.01 579.015 1012 581.5 1012 583.985 1012 586 1014.01 586 1016.5 586 1018.99 583.985 1021 581.5 1021 579.015 1021 577 1018.99 577 1016.5Z" fill="#D86ECC" fill-rule="evenodd" fill-opacity="1"/><path d="M509 1064C509 1061.79 510.567 1060 512.5 1060 514.433 1060 516 1061.79 516 1064 516 1066.21 514.433 1068 512.5 1068 510.567 1068 509 1066.21 509 1064Z" fill="#CA9A96" fill-rule="evenodd" fill-opacity="1"/><path d="M504 958.5C504 954.358 507.358 951 511.5 951 515.642 951 519 954.358 519 958.5 519 962.642 515.642 966 511.5 966 507.358 966 504 962.642 504 958.5Z" fill="#CA9A96" fill-rule="evenodd" fill-opacity="1"/><path d="M519 1040C519 1037.79 520.567 1036 522.5 1036 524.433 1036 526 1037.79 526 1040 526 1042.21 524.433 1044 522.5 1044 520.567 1044 519 1042.21 519 1040Z" fill="#CA9A96" fill-rule="evenodd" fill-opacity="1"/><path d="M505 1027.5C505 1024.46 507.239 1022 510 1022 512.761 1022 515 1024.46 515 1027.5 515 1030.54 512.761 1033 510 1033 507.239 1033 505 1030.54 505 1027.5Z" fill="#CA9A96" fill-rule="evenodd" fill-opacity="1"/><path d="M488 1027.5C488 1025.01 490.015 1023 492.5 1023 494.985 1023 497 1025.01 497 1027.5 497 1029.99 494.985 1032 492.5 1032 490.015 1032 488 1029.99 488 1027.5Z" fill="#CA9A96" fill-rule="evenodd" fill-opacity="1"/><path d="M497 1044.5C497 1042.01 499.015 1040 501.5 1040 503.985 1040 506 1042.01 506 1044.5 506 1046.99 503.985 1049 501.5 1049 499.015 1049 497 1046.99 497 1044.5Z" fill="#CA9A96" fill-rule="evenodd" fill-opacity="1"/><path d="M513.792 976.5 513.792 999.64 509.209 999.64 509.208 976.5ZM520.667 995.056 511.5 1013.39 502.334 995.057Z" fill="#BFBFBF" fill-rule="nonzero" fill-opacity="1"/><text fill="#595959" fill-opacity="1" font-family="Helvetica,Helvetica_MSFontService,sans-serif" font-style="normal" font-variant="normal" font-weight="400" font-stretch="normal" font-size="25" text-anchor="start" direction="ltr" writing-mode="lr-tb" unicode-bidi="normal" text-decoration="none" transform="matrix(1 0 0 1 224.49 1100)">MS/MS spectrum</text><text fill="#595959" fill-opacity="1" font-family="Helvetica,Helvetica_MSFontService,sans-serif" font-style="oblique" font-variant="normal" font-weight="400" font-stretch="normal" font-size="23" text-anchor="start" direction="ltr" writing-mode="lr-tb" unicode-bidi="normal" text-decoration="none" transform="matrix(1 0 0 1 679.999 1209)">m/z</text><path d="M636 1133 630 1142 624 1133Z" stroke="#FF0000" stroke-width="2.29167" stroke-linecap="butt" stroke-linejoin="miter" stroke-miterlimit="8" stroke-opacity="0.701961" fill="#FF0000" fill-rule="evenodd" fill-opacity="1"/><path d="M630.5 1155.5 630.5 1198.18" stroke="#CA9A96" stroke-width="3.20833" stroke-linecap="butt" stroke-linejoin="miter" stroke-miterlimit="8" stroke-opacity="1" fill="none" fill-rule="evenodd"/><path d="M639.5 1175.5 639.5 1197.64" stroke="#D86ECC" stroke-width="3.20833" stroke-linecap="butt" stroke-linejoin="miter" stroke-miterlimit="8" stroke-opacity="1" fill="none" fill-rule="evenodd"/><path d="M547.5 1112.5 547.5 1197.85" stroke="#CA9A96" stroke-width="3.20833" stroke-linecap="butt" stroke-linejoin="miter" stroke-miterlimit="8" stroke-opacity="1" fill="none" fill-rule="evenodd"/><path d="M495.5 1175.5 495.5 1197.64" stroke="#CA9A96" stroke-width="3.20833" stroke-linecap="butt" stroke-linejoin="miter" stroke-miterlimit="8" stroke-opacity="1" fill="none" fill-rule="evenodd"/><path d="M409.5 1132.5 409.5 1197.28" stroke="#CA9A96" stroke-width="3.20833" stroke-linecap="butt" stroke-linejoin="miter" stroke-miterlimit="8" stroke-opacity="1" fill="none" fill-rule="evenodd"/><path d="M478.5 1155.5 478.5 1198.18" stroke="#CA9A96" stroke-width="3.20833" stroke-linecap="butt" stroke-linejoin="miter" stroke-miterlimit="8" stroke-opacity="1" fill="none" fill-rule="evenodd"/><path d="M392.5 1174.5 392.5 1198.24" stroke="#CA9A96" stroke-width="3.20833" stroke-linecap="butt" stroke-linejoin="miter" stroke-miterlimit="8" stroke-opacity="1" fill="none" fill-rule="evenodd"/><path d="M379.5 1155.5 379.5 1197.82" stroke="#0976A0" stroke-width="3.20833" stroke-linecap="butt" stroke-linejoin="miter" stroke-miterlimit="8" stroke-opacity="1" fill="none" fill-rule="evenodd"/><path d="M432.5 1186.5 432.5 1197.29" stroke="#0976A0" stroke-width="3.20833" stroke-linecap="butt" stroke-linejoin="miter" stroke-miterlimit="8" stroke-opacity="1" fill="none" fill-rule="evenodd"/><path d="M539.5 1173.5 539.5 1198.09" stroke="#0976A0" stroke-width="3.20833" stroke-linecap="butt" stroke-linejoin="miter" stroke-miterlimit="8" stroke-opacity="1" fill="none" fill-rule="evenodd"/><path d="M370.5 1181.5 370.5 1197.34" stroke="#0976A0" stroke-width="3.20833" stroke-linecap="butt" stroke-linejoin="miter" stroke-miterlimit="8" stroke-opacity="1" fill="none" fill-rule="evenodd"/><path d="M515.5 1133.5 515.5 1197.4" stroke="#D86ECC" stroke-width="3.20833" stroke-linecap="butt" stroke-linejoin="miter" stroke-miterlimit="8" stroke-opacity="1" fill="none" fill-rule="evenodd"/><path d="M444.5 1179.5 444.5 1197.28" stroke="#D86ECC" stroke-width="3.20833" stroke-linecap="butt" stroke-linejoin="miter" stroke-miterlimit="8" stroke-opacity="1" fill="none" fill-rule="evenodd"/><path d="M601.5 1163.5 601.5 1197.95" stroke="#D86ECC" stroke-width="3.20833" stroke-linecap="butt" stroke-linejoin="miter" stroke-miterlimit="8" stroke-opacity="1" fill="none" fill-rule="evenodd"/><path d="M290 1197 671.544 1197" stroke="#BFBFBF" stroke-width="2.29167" stroke-linecap="butt" stroke-linejoin="miter" stroke-miterlimit="8" stroke-opacity="1" fill="none" fill-rule="evenodd"/><text fill="#595959" fill-opacity="1" font-family="Helvetica,Helvetica_MSFontService,sans-serif" font-style="normal" font-variant="normal" font-weight="700" font-stretch="normal" font-size="25" text-anchor="start" direction="ltr" writing-mode="lr-tb" unicode-bidi="normal" text-decoration="none" transform="matrix(1 0 0 1 185.003 1341)">Symmetric </text><text fill="#595959" fill-opacity="1" font-family="Helvetica,Helvetica_MSFontService,sans-serif" font-style="normal" font-variant="normal" font-weight="700" font-stretch="normal" font-size="25" text-anchor="start" direction="ltr" writing-mode="lr-tb" unicode-bidi="normal" text-decoration="none" transform="matrix(1 0 0 1 319.638 1341)">search</text><text fill="#595959" fill-opacity="1" font-family="Helvetica,Helvetica_MSFontService,sans-serif" font-style="normal" font-variant="normal" font-weight="700" font-stretch="normal" font-size="25" text-anchor="start" direction="ltr" writing-mode="lr-tb" unicode-bidi="normal" text-decoration="none" transform="matrix(1 0 0 1 185.003 1588)">Reverse search</text><path d="M459 1269.83 480.75 1269.83 480.75 1237 524.25 1237 524.25 1269.83 546 1269.83 502.5 1305Z" fill="#D9D9D9" fill-rule="evenodd" fill-opacity="0.611765"/><text fill="#595959" fill-opacity="1" font-family="Helvetica,Helvetica_MSFontService,sans-serif" font-style="oblique" font-variant="normal" font-weight="400" font-stretch="normal" font-size="23" text-anchor="start" direction="ltr" writing-mode="lr-tb" unicode-bidi="normal" text-decoration="none" transform="matrix(1 0 0 1 680.698 1433)">m/z</text><text fill="#595959" fill-opacity="1" font-family="Helvetica,Helvetica_MSFontService,sans-serif" font-style="normal" font-variant="normal" font-weight="400" font-stretch="normal" font-size="21" text-anchor="start" direction="ltr" writing-mode="lr-tb" unicode-bidi="normal" text-decoration="none" transform="matrix(1 0 0 1 299.318 1472)">Reference</text><path d="M638 1385 632 1393 626 1385Z" stroke="#FF0000" stroke-width="2.29167" stroke-linecap="butt" stroke-linejoin="miter" stroke-miterlimit="8" stroke-opacity="0.701961" fill="#FF0000" fill-rule="evenodd" fill-opacity="1"/><path d="M290 1435 671.544 1435" stroke="#BFBFBF" stroke-width="2.29167" stroke-linecap="butt" stroke-linejoin="miter" stroke-miterlimit="8" stroke-opacity="1" fill="none" fill-rule="evenodd"/><path d="M631.5 1408.5 631.5 1462.71" stroke="#CA9A96" stroke-width="3.20833" stroke-linecap="butt" stroke-linejoin="miter" stroke-miterlimit="8" stroke-opacity="1" fill="none" fill-rule="evenodd"/><path d="M639.5 1421.5 639.5 1435.39" stroke="#D86ECC" stroke-width="3.20833" stroke-linecap="butt" stroke-linejoin="miter" stroke-miterlimit="8" stroke-opacity="1" fill="none" fill-rule="evenodd"/><path d="M548.5 1382.5 548.5 1490.93" stroke="#CA9A96" stroke-width="3.20833" stroke-linecap="butt" stroke-linejoin="miter" stroke-miterlimit="8" stroke-opacity="1" fill="none" fill-rule="evenodd"/><path d="M496.5 1421.5 496.5 1450.2" stroke="#CA9A96" stroke-width="3.20833" stroke-linecap="butt" stroke-linejoin="miter" stroke-miterlimit="8" stroke-opacity="1" fill="none" fill-rule="evenodd"/><path d="M410.5 1394.5 410.5 1477.41" stroke="#CA9A96" stroke-width="3.20833" stroke-linecap="butt" stroke-linejoin="miter" stroke-miterlimit="8" stroke-opacity="1" fill="none" fill-rule="evenodd"/><path d="M479.5 1408.5 479.5 1462.71" stroke="#CA9A96" stroke-width="3.20833" stroke-linecap="butt" stroke-linejoin="miter" stroke-miterlimit="8" stroke-opacity="1" fill="none" fill-rule="evenodd"/><path d="M393.5 1420.5 393.5 1449.2" stroke="#CA9A96" stroke-width="3.20833" stroke-linecap="butt" stroke-linejoin="miter" stroke-miterlimit="8" stroke-opacity="1" fill="none" fill-rule="evenodd"/><path d="M380.5 1409.5 380.5 1436.05" stroke="#0976A0" stroke-width="3.20833" stroke-linecap="butt" stroke-linejoin="miter" stroke-miterlimit="8" stroke-opacity="1" fill="none" fill-rule="evenodd"/><path d="M433.5 1428.5 433.5 1435.27" stroke="#0976A0" stroke-width="3.20833" stroke-linecap="butt" stroke-linejoin="miter" stroke-miterlimit="8" stroke-opacity="1" fill="none" fill-rule="evenodd"/><path d="M539.5 1420.5 539.5 1435.92" stroke="#0976A0" stroke-width="3.20833" stroke-linecap="butt" stroke-linejoin="miter" stroke-miterlimit="8" stroke-opacity="1" fill="none" fill-rule="evenodd"/><path d="M370.5 1425.5 370.5 1435.07" stroke="#0976A0" stroke-width="3.20833" stroke-linecap="butt" stroke-linejoin="miter" stroke-miterlimit="8" stroke-opacity="1" fill="none" fill-rule="evenodd"/><path d="M516.5 1395.5 516.501 1435.59" stroke="#D86ECC" stroke-width="3.20833" stroke-linecap="butt" stroke-linejoin="miter" stroke-miterlimit="8" stroke-opacity="1" fill="none" fill-rule="evenodd"/><path d="M445.5 1424.5 445.5 1435.66" stroke="#D86ECC" stroke-width="3.20833" stroke-linecap="butt" stroke-linejoin="miter" stroke-miterlimit="8" stroke-opacity="1" fill="none" fill-rule="evenodd"/><path d="M602.5 1414.5 602.5 1436.11" stroke="#D86ECC" stroke-width="3.20833" stroke-linecap="butt" stroke-linejoin="miter" stroke-miterlimit="8" stroke-opacity="1" fill="none" fill-rule="evenodd"/><text fill="#595959" fill-opacity="1" font-family="Helvetica,Helvetica_MSFontService,sans-serif" font-style="normal" font-variant="normal" font-weight="400" font-stretch="normal" font-size="21" text-anchor="start" direction="ltr" writing-mode="lr-tb" unicode-bidi="normal" text-decoration="none" transform="matrix(1 0 0 1 299.318 1408)">Query</text><text fill="#595959" fill-opacity="1" font-family="Helvetica,Helvetica_MSFontService,sans-serif" font-style="oblique" font-variant="normal" font-weight="400" font-stretch="normal" font-size="23" text-anchor="start" direction="ltr" writing-mode="lr-tb" unicode-bidi="normal" text-decoration="none" transform="matrix(1 0 0 1 680.698 1679)">m/z</text><text fill="#595959" fill-opacity="1" font-family="Helvetica,Helvetica_MSFontService,sans-serif" font-style="normal" font-variant="normal" font-weight="400" font-stretch="normal" font-size="21" text-anchor="start" direction="ltr" writing-mode="lr-tb" unicode-bidi="normal" text-decoration="none" transform="matrix(1 0 0 1 299.318 1719)">Reference</text><path d="M638 1631 632 1639 626 1631Z" stroke="#FF0000" stroke-width="2.29167" stroke-linecap="butt" stroke-linejoin="miter" stroke-miterlimit="8" stroke-opacity="0.701961" fill="#FF0000" fill-rule="evenodd" fill-opacity="1"/><path d="M290 1681 671.545 1681" stroke="#BFBFBF" stroke-width="2.29167" stroke-linecap="butt" stroke-linejoin="miter" stroke-miterlimit="8" stroke-opacity="1" fill="none" fill-rule="evenodd"/><path d="M631.5 1654.5 631.5 1708.71" stroke="#CA9A96" stroke-width="3.20833" stroke-linecap="butt" stroke-linejoin="miter" stroke-miterlimit="8" stroke-opacity="1" fill="none" fill-rule="evenodd"/><path d="M639.5 1667.5 639.5 1681.39" stroke="#BFBFBF" stroke-width="3.20833" stroke-linecap="butt" stroke-linejoin="miter" stroke-miterlimit="8" stroke-dasharray="3.20833 3.20833" stroke-opacity="1" fill="none" fill-rule="evenodd"/><path d="M548.5 1628.5 548.5 1736.93" stroke="#CA9A96" stroke-width="3.20833" stroke-linecap="butt" stroke-linejoin="miter" stroke-miterlimit="8" stroke-opacity="1" fill="none" fill-rule="evenodd"/><path d="M496.5 1667.5 496.5 1696.2" stroke="#CA9A96" stroke-width="3.20833" stroke-linecap="butt" stroke-linejoin="miter" stroke-miterlimit="8" stroke-opacity="1" fill="none" fill-rule="evenodd"/><path d="M410.5 1640.5 410.5 1723.41" stroke="#CA9A96" stroke-width="3.20833" stroke-linecap="butt" stroke-linejoin="miter" stroke-miterlimit="8" stroke-opacity="1" fill="none" fill-rule="evenodd"/><path d="M479.5 1654.5 479.5 1708.71" stroke="#CA9A96" stroke-width="3.20833" stroke-linecap="butt" stroke-linejoin="miter" stroke-miterlimit="8" stroke-opacity="1" fill="none" fill-rule="evenodd"/><path d="M393.5 1666.5 393.5 1695.2" stroke="#CA9A96" stroke-width="3.20833" stroke-linecap="butt" stroke-linejoin="miter" stroke-miterlimit="8" stroke-opacity="1" fill="none" fill-rule="evenodd"/><path d="M380.5 1655.5 380.5 1682.05" stroke="#BFBFBF" stroke-width="3.20833" stroke-linecap="butt" stroke-linejoin="miter" stroke-miterlimit="8" stroke-dasharray="3.20833 3.20833" stroke-opacity="1" fill="none" fill-rule="evenodd"/><path d="M433.5 1674.5 433.5 1681.27" stroke="#BFBFBF" stroke-width="3.20833" stroke-linecap="butt" stroke-linejoin="miter" stroke-miterlimit="8" stroke-dasharray="3.20833 3.20833" stroke-opacity="1" fill="none" fill-rule="evenodd"/><path d="M539.5 1666.5 539.5 1681.92" stroke="#BFBFBF" stroke-width="3.20833" stroke-linecap="butt" stroke-linejoin="miter" stroke-miterlimit="8" stroke-dasharray="3.20833 3.20833" stroke-opacity="1" fill="none" fill-rule="evenodd"/><path d="M370.5 1671.5 370.5 1681.07" stroke="#BFBFBF" stroke-width="3.20833" stroke-linecap="butt" stroke-linejoin="miter" stroke-miterlimit="8" stroke-dasharray="3.20833 3.20833" stroke-opacity="1" fill="none" fill-rule="evenodd"/><path d="M516.5 1641.5 516.501 1681.59" stroke="#BFBFBF" stroke-width="3.20833" stroke-linecap="butt" stroke-linejoin="miter" stroke-miterlimit="8" stroke-dasharray="3.20833 3.20833" stroke-opacity="1" fill="none" fill-rule="evenodd"/><path d="M445.5 1670.5 445.5 1681.66" stroke="#BFBFBF" stroke-width="3.20833" stroke-linecap="butt" stroke-linejoin="miter" stroke-miterlimit="8" stroke-dasharray="3.20833 3.20833" stroke-opacity="1" fill="none" fill-rule="evenodd"/><path d="M602.5 1659.5 602.5 1681.11" stroke="#BFBFBF" stroke-width="3.20833" stroke-linecap="butt" stroke-linejoin="miter" stroke-miterlimit="8" stroke-dasharray="3.20833 3.20833" stroke-opacity="1" fill="none" fill-rule="evenodd"/><text fill="#595959" fill-opacity="1" font-family="Helvetica,Helvetica_MSFontService,sans-serif" font-style="normal" font-variant="normal" font-weight="400" font-stretch="normal" font-size="21" text-anchor="start" direction="ltr" writing-mode="lr-tb" unicode-bidi="normal" text-decoration="none" transform="matrix(1 0 0 1 299.318 1654)">Query</text><text fill="#595959" fill-opacity="1" font-family="Helvetica,Helvetica_MSFontService,sans-serif" font-style="normal" font-variant="normal" font-weight="400" font-stretch="normal" font-size="23" text-anchor="start" direction="ltr" writing-mode="lr-tb" unicode-bidi="normal" text-decoration="none" transform="matrix(1 0 0 1 561.023 1745)">Similarity: 0.95</text><text fill="#595959" fill-opacity="1" font-family="Helvetica,Helvetica_MSFontService,sans-serif" font-style="normal" font-variant="normal" font-weight="400" font-stretch="normal" font-size="23" text-anchor="start" direction="ltr" writing-mode="lr-tb" unicode-bidi="normal" text-decoration="none" transform="matrix(1 0 0 1 561.023 1499)">Similarity: </text><text fill="#595959" fill-opacity="1" font-family="Helvetica,Helvetica_MSFontService,sans-serif" font-style="normal" font-variant="normal" font-weight="400" font-stretch="normal" font-size="23" text-anchor="start" direction="ltr" writing-mode="lr-tb" unicode-bidi="normal" text-decoration="none" transform="matrix(1 0 0 1 666.44 1499)">0.62</text><path d="M2.99999 14.6695 7.17611 9.07768 12.3864 4.42385 18.2925 0.948753 24.6979-1.29831 31.4089-2.26961 38.2316-1.91649 44.9681-0.190423 51.5692 3.0281 58.3798 10.1178 55.0744 13.293 48.5461 6.49704 49.1944 6.96932 43.169 4.03152 43.6045 4.1916 37.3157 2.58024 37.7661 2.64889 31.3963 2.31921 31.843 2.29864 25.5747 3.20587 26.0051 3.1003 20.0207 5.19969 20.4242 5.01237 14.906 8.25916 15.2705 7.99316 10.4011 12.3426 10.7106 12.0047 6.67223 17.412ZM61.7926 2.79605 64.379 23.1295 46.5604 12.9986Z" fill="#D9D9D9" fill-rule="nonzero" fill-opacity="1" transform="matrix(1.83697e-16 1 1 -1.83697e-16 264.5 1648.5)"/></g></g></svg>